#tb 0: 1/90000
0,          0,          0,        0,   115200, 0x375ec573
0,       6000,       6000,        0,   115200, 0x375ec573
0,      12000,      12000,        0,   115200, 0x375ec573
0,      18000,      18000,        0,   115200, 0x375ec573
0,      24000,      24000,        0,   115200, 0x375ec573
0,      30000,      30000,        0,   115200, 0x375ec573
0,      36000,      36000,        0,   115200, 0x375ec573
0,      42000,      42000,        0,   115200, 0x375ec573
0,      48000,      48000,        0,   115200, 0x0b4d31bf
0,      54000,      54000,        0,   115200, 0xdd724598
0,      60000,      60000,        0,   115200, 0xc3077e75
0,      66000,      66000,        0,   115200, 0xbf70778a
0,      72000,      72000,        0,   115200, 0x117eb766
0,      78000,      78000,        0,   115200, 0x4617fbad
0,      84000,      84000,        0,   115200, 0x5f5b02d2
0,      90000,      90000,        0,   115200, 0x2a9c5325
0,      96000,      96000,        0,   115200, 0x14a89e2a
0,     102000,     102000,        0,   115200, 0xe69aa994
0,     108000,     108000,        0,   115200, 0xfbacf589
0,     114000,     114000,        0,   115200, 0x1d714c6e
0,     120000,     120000,        0,   115200, 0x6eff66cb
0,     126000,     126000,        0,   115200, 0xee21c1cb
0,     132000,     132000,        0,   115200, 0xce714ada
0,     138000,     138000,        0,   115200, 0xf89d56c3
0,     144000,     144000,        0,   115200, 0x65fd5e60
0,     150000,     150000,        0,   115200, 0x0c256424
